<?xml version="1.0" encoding="UTF-8" standalone="no"?>
<svg width="145px" height="49px" viewBox="0 0 145 49" version="1.1" xmlns="http://www.w3.org/2000/svg" xmlns:xlink="http://www.w3.org/1999/xlink">
    <!-- Generator: Sketch 50 (54983) - http://www.bohemiancoding.com/sketch -->
    <title>LOGO</title>
    <desc>Created with Sketch.</desc>
    <defs></defs>
    <g id="Symbols" stroke="none" stroke-width="1" fill="none" fill-rule="evenodd">
        <g id="::-HEADER" transform="translate(-115.000000, -16.000000)">
            <g id="LOGO">
                <g transform="translate(115.000000, 16.000000)">
                    <g id="Group" transform="translate(43.000000, 41.000000)" fill="#0070AD">
                        <path d="M0.612113054,4.15856387 L2.3852959,4.15856387 C2.95244971,4.15856387 3.38510346,4.02865556 3.68307831,3.76918307 C3.98069544,3.50971057 4.12968287,3.14803207 4.12968287,2.68380343 C4.12968287,2.22267195 3.98158973,1.85565946 3.68522459,1.58224979 C3.38903831,1.30901217 2.96818908,1.16929622 2.42321347,1.16310191 L0.612113054,1.16310191 L0.612113054,4.15856387 Z M0.612113054,4.63414873 L0.612113054,7.34604924 L0.0270736046,7.34604924 L0.0270736046,0.68751705 L2.3852959,0.68751705 C3.10465655,0.68751705 3.67252578,0.864226766 4.08926131,1.21799032 C4.5061757,1.57192595 4.71454346,2.05800671 4.71454346,2.67692087 C4.71454346,3.30185728 4.51386652,3.7843247 4.11304922,4.12432314 C3.71223191,4.46432158 3.13148502,4.63414873 2.37080853,4.63414873 L0.612113054,4.63414873 Z" id="Fill-56"></path>
                        <polygon id="Fill-58" points="5.95530643 7.34618689 6.52567965 7.34618689 6.52567965 0.321846664 5.95530643 0.321846664"></polygon>
                        <path d="M9.53012819,6.95274538 C9.91037701,6.95274538 10.2502043,6.86430449 10.5499677,6.68759477 C10.8491945,6.51088506 11.0672205,6.27446914 11.2033303,5.97869114 L11.2033303,4.89038642 L10.1859948,4.89038642 C9.61884099,4.89640866 9.17527699,4.99620577 8.85512395,5.18977776 C8.53514976,5.38352181 8.37507323,5.64936067 8.37507323,5.98781053 C8.37507323,6.26534975 8.48202939,6.4953993 8.69576285,6.67847538 C8.90985402,6.8613794 9.18779695,6.95274538 9.53012819,6.95274538 Z M11.3176196,7.34608365 C11.2605644,7.19053781 11.2240776,6.96048826 11.2081594,6.65559087 C11.0085556,6.90577191 10.7542217,7.09848357 10.4451578,7.23424206 C10.1364516,7.36965642 9.8089654,7.43744963 9.46359359,7.43744963 C8.96923436,7.43744963 8.56895363,7.30478829 8.26328795,7.03963769 C7.95744342,6.77465915 7.80452116,6.43930644 7.80452116,6.03375162 C7.80452116,5.55180039 8.01306778,5.17102279 8.42962445,4.89038642 C8.84635998,4.60992212 9.42710688,4.46934584 10.172044,4.46934584 L11.2033303,4.46934584 L11.2033303,3.90704073 C11.2033303,3.55344924 11.090293,3.27522177 10.863503,3.07235833 C10.6368919,2.86983902 10.306544,2.76832126 9.87245944,2.76832126 C9.4762924,2.76832126 9.14809081,2.86605361 8.8885701,3.06100211 C8.62833397,3.25629473 8.49848418,3.49099001 8.49848418,3.76526001 L7.92811096,3.76078634 C7.92811096,3.36744807 8.11805651,3.02676137 8.49848418,2.73872626 C8.878733,2.45051908 9.34644262,2.30632946 9.90107647,2.30632946 C10.4744903,2.30632946 10.9268182,2.44449684 11.2582392,2.72031541 C11.5893025,2.99613398 11.7597527,3.38104112 11.7692321,3.87503683 L11.7692321,6.21665564 C11.7692321,6.69533765 11.8214582,7.05340281 11.9260892,7.2913673 L11.9260892,7.34608365 L11.3176196,7.34608365 Z" id="Fill-60"></path>
                        <path d="M13.8273154,2.39776426 L13.846453,3.24397495 C14.039618,2.93907757 14.2807165,2.70661912 14.5688542,2.54659961 C14.8573497,2.38640804 15.175893,2.30639828 15.5243054,2.30639828 C16.0758987,2.30639828 16.4861954,2.45592189 16.7557321,2.75462497 C17.0250899,3.05367218 17.1613785,3.5017268 17.164419,4.09913297 L17.164419,7.34615248 L16.5988749,7.34615248 L16.5988749,4.09448724 C16.5954767,3.65262692 16.4981788,3.32329645 16.3062658,3.10666789 C16.1147105,2.89021139 15.8079717,2.78198314 15.3867648,2.78198314 C15.0345964,2.78198314 14.7235651,2.88797456 14.4525975,3.09995739 C14.1814512,3.31176816 13.9809531,3.59756645 13.8511033,3.95735224 L13.8511033,7.34615248 L13.2853803,7.34615248 L13.2853803,2.39776426 L13.8273154,2.39776426 Z" id="Fill-61"></path>
                        <path d="M18.8900618,4.94981732 C18.8900618,5.54137331 19.0492441,6.02676582 19.3677874,6.40633898 C19.6863308,6.7860842 20.1039606,6.97552665 20.620498,6.97552665 C21.133816,6.97552665 21.5498361,6.7860842 21.8683795,6.40633898 C22.1869228,6.02676582 22.346105,5.52605962 22.346105,4.9040483 L22.346105,4.79874514 C22.346105,4.42072056 22.2733105,4.07469988 22.1275425,3.76085517 C21.9815956,3.44666633 21.7773415,3.20353991 21.5142437,3.03147593 C21.2513247,2.85906781 20.9503093,2.77303582 20.6111975,2.77303582 C20.1039606,2.77303582 19.6904445,2.96419891 19.3702914,3.34686922 C19.0501384,3.72953952 18.8900618,4.23007366 18.8900618,4.84915989 L18.8900618,4.94981732 Z M18.3196886,4.79874514 C18.3196886,4.32316028 18.4153768,3.89489302 18.6074687,3.51377128 C18.7988451,3.13247749 19.0698126,2.8361833 19.4201924,2.62420047 C19.7703933,2.41256176 20.1672758,2.30639828 20.6111975,2.30639828 C21.2956811,2.30639828 21.8501361,2.53730815 22.2749202,2.9991279 C22.6995254,3.4611197 22.911828,4.07315131 22.911828,4.83539477 L22.911828,4.94981732 C22.911828,5.42832727 22.8159609,5.85900343 22.6242268,6.24167374 C22.4324927,6.62434405 22.1620618,6.91926172 21.8136494,7.12659883 C21.4650582,7.33393593 21.0672814,7.43751845 20.620498,7.43751845 C19.9392338,7.43751845 19.3853154,7.20660858 18.9591004,6.74478884 C18.5327067,6.28279703 18.3196886,5.67076543 18.3196886,4.90852197 L18.3196886,4.79874514 Z" id="Fill-62"></path>
                        <path d="M26.8004355,4.92225267 C26.8004355,5.55338338 26.9317161,6.05133656 27.1951717,6.41542396 C27.4580907,6.77985548 27.8288601,6.96189918 28.30748,6.96189918 C29.007703,6.96189918 29.5052816,6.66474467 29.800037,6.07009153 L29.800037,3.74705564 C29.5052816,3.10370839 29.0107435,2.7821208 28.3169594,2.7821208 C27.8383395,2.7821208 27.4661392,2.96244385 27.1996431,3.32395029 C26.9335047,3.68528467 26.8004355,4.21799477 26.8004355,4.92225267 Z M26.2252332,4.82624097 C26.2252332,4.05797526 26.4033742,3.44594366 26.7598351,2.99014616 C27.1164749,2.53434865 27.6006393,2.30636387 28.2125072,2.30636387 C28.9062914,2.30636387 29.4355276,2.57013796 29.800037,3.09768615 L29.800037,0.321777838 L30.3659389,0.321777838 L30.3659389,7.34611806 L29.8333043,7.34611806 L29.8095164,6.68762918 C29.445007,7.18747507 28.9095108,7.43748404 28.2026701,7.43748404 C27.6099398,7.43748404 27.1322142,7.20829481 26.7696722,6.74940016 C26.4065936,6.2905055 26.2252332,5.67090308 26.2252332,4.89024877 L26.2252332,4.82624097 Z" id="Fill-63"></path>
                        <path d="M33.750511,2.77296699 C33.3225075,2.77296699 32.9622906,2.92386711 32.6691449,3.22566734 C32.3756415,3.52746758 32.1975005,3.93285033 32.1341853,4.44215973 L35.219459,4.44215973 L35.219459,4.3826256 C35.203362,3.90704073 35.0626019,3.51989676 34.7964635,3.22102162 C34.5299674,2.92214647 34.1813762,2.77296699 33.750511,2.77296699 M33.855142,7.43744963 C33.4176592,7.43744963 33.0223864,7.33403917 32.6691449,7.12670207 C32.3157246,6.91936496 32.0404645,6.63046953 31.844259,6.26001576 C31.6476957,5.889562 31.5495035,5.47419953 31.5495035,5.01358424 L31.5495035,4.81708716 C31.5495035,4.34133024 31.6451917,3.91323504 31.8372836,3.53194124 C32.02866,3.15099157 32.2958715,2.85125611 32.6380239,2.63325103 C32.9803551,2.41559009 33.3513034,2.30632946 33.750511,2.30632946 C34.3748989,2.30632946 34.8701524,2.51142973 35.2360927,2.92145821 C35.6022118,3.33165876 35.785182,3.8918991 35.785182,4.60217924 L35.785182,4.90845314 L32.1152265,4.90845314 L32.1152265,5.01358424 C32.1152265,5.5746849 32.2822784,6.04218275 32.61674,6.41538954 C32.9510227,6.78911252 33.3718719,6.97562989 33.8789299,6.97562989 C34.1831648,6.97562989 34.4518072,6.92229005 34.6846783,6.81561038 C34.9175494,6.70910277 35.1289577,6.53841529 35.3192609,6.30354795 L35.6759007,6.56388076 C35.2575555,7.14648943 34.6503378,7.43744963 33.855142,7.43744963" id="Fill-64"></path>
                        <polygon id="Fill-65" points="40.1678626 0.687534257 42.7205018 6.56386356 45.2829782 0.687534257 46.0626135 0.687534257 46.0626135 7.34606645 45.4777529 7.34606645 45.4777529 4.44661619 45.5253287 1.47403874 42.9489015 7.34606645 42.497289 7.34606645 39.9303412 1.49692325 39.977917 4.42837741 39.977917 7.34606645 39.3930564 7.34606645 39.3930564 0.687534257"></polygon>
                        <path d="M49.5707575,2.77296699 C49.1427541,2.77296699 48.7825372,2.92386711 48.4893914,3.22566734 C48.1960669,3.52746758 48.0179258,3.93285033 47.9544318,4.44215973 L51.0397056,4.44215973 L51.0397056,4.3826256 C51.0236085,3.90704073 50.8828485,3.51989676 50.6167101,3.22102162 C50.350214,2.92214647 50.0016227,2.77296699 49.5707575,2.77296699 M49.6753886,7.43744963 C49.2380845,7.43744963 48.8426329,7.33403917 48.4893914,7.12670207 C48.13615,6.91936496 47.860711,6.63046953 47.6645055,6.26001576 C47.4679423,5.889562 47.3697501,5.47419953 47.3697501,5.01358424 L47.3697501,4.81708716 C47.3697501,4.34133024 47.4654383,3.91323504 47.6575301,3.53194124 C47.8489065,3.15099157 48.116118,2.85125611 48.4582704,2.63325103 C48.8006017,2.41559009 49.1715499,2.30632946 49.5707575,2.30632946 C50.1951454,2.30632946 50.6903989,2.51142973 51.0565181,2.92145821 C51.4224584,3.33165876 51.6054285,3.8918991 51.6054285,4.60217924 L51.6054285,4.90845314 L47.935473,4.90845314 L47.935473,5.01358424 C47.935473,5.5746849 48.1025249,6.04218275 48.4369865,6.41538954 C48.7712692,6.78911252 49.1921184,6.97562989 49.6991765,6.97562989 C50.0034113,6.97562989 50.2720537,6.92229005 50.5049248,6.81561038 C50.7377959,6.70910277 50.9492042,6.53841529 51.1395075,6.30354795 L51.4961472,6.56388076 C51.077802,7.14648943 50.4707632,7.43744963 49.6753886,7.43744963" id="Fill-66"></path>
                        <path d="M53.0600144,4.92225267 C53.0600144,5.55338338 53.191295,6.05133656 53.4545717,6.41542396 C53.7176696,6.77985548 54.0886178,6.96189918 54.5670588,6.96189918 C55.2672818,6.96189918 55.7648605,6.66474467 56.0596159,6.07009153 L56.0596159,3.74705564 C55.7648605,3.10370839 55.2703224,2.7821208 54.5765382,2.7821208 C54.0980972,2.7821208 53.7257181,2.96244385 53.459222,3.32395029 C53.1930836,3.68528467 53.0600144,4.21799477 53.0600144,4.92225267 Z M52.484812,4.82624097 C52.484812,4.05797526 52.6629531,3.44594366 53.019414,2.99014616 C53.3762326,2.53434865 53.8602181,2.30636387 54.4720861,2.30636387 C55.1658702,2.30636387 55.6951065,2.57013796 56.0596159,3.09768615 L56.0596159,0.321777838 L56.6255177,0.321777838 L56.6255177,7.34611806 L56.0928832,7.34611806 L56.0690953,6.68762918 C55.7045859,7.18747507 55.1690896,7.43748404 54.462249,7.43748404 C53.8695187,7.43748404 53.3917931,7.20829481 53.0292511,6.74940016 C52.6661725,6.2905055 52.484812,5.67090308 52.484812,4.89024877 L52.484812,4.82624097 Z" id="Fill-67"></path>
                        <path d="M58.1894385,7.34618689 L58.7598117,7.34618689 L58.7598117,2.39779867 L58.1894385,2.39779867 L58.1894385,7.34618689 Z M58.0894578,0.968807257 C58.0894578,0.865568865 58.1243348,0.778504487 58.1942677,0.70744206 C58.2638428,0.636207569 58.3588156,0.600590324 58.4793648,0.600590324 C58.5999141,0.600590324 58.6957811,0.636207569 58.766966,0.70744206 C58.8383297,0.778504487 58.8739222,0.865568865 58.8739222,0.968807257 C58.8739222,1.07187359 58.8383297,1.15824971 58.766966,1.22793562 C58.6957811,1.29762154 58.5999141,1.3322064 58.4793648,1.3322064 C58.3588156,1.3322064 58.2638428,1.29762154 58.1942677,1.22793562 C58.1243348,1.15824971 58.0894578,1.07187359 58.0894578,0.968807257 Z" id="Fill-68"></path>
                        <path d="M62.2065007,6.97559547 C62.6024889,6.97559547 62.9344465,6.86822755 63.2023735,6.65331963 C63.4699427,6.43823964 63.6149953,6.16018424 63.6373524,5.81863722 L64.1839377,5.81863722 C64.1681983,6.12043746 64.0700061,6.39556777 63.8891822,6.64420023 C63.7085372,6.89266063 63.4686907,7.08692087 63.1689273,7.22715302 C62.8695216,7.36721311 62.5486531,7.43758728 62.2065007,7.43758728 C61.5314965,7.43758728 60.9965369,7.21201139 60.6019795,6.76085962 C60.2072433,6.30953578 60.0101435,5.70283816 60.0101435,4.94059469 L60.0101435,4.77592946 C60.0101435,4.28830012 60.0988563,3.8569357 60.2764608,3.48166414 C60.4538864,3.10673671 60.7082203,2.81698096 61.0392836,2.61291307 C61.3703468,2.40850105 61.7579288,2.30629504 62.2016716,2.30629504 C62.765606,2.30629504 63.2308116,2.46803519 63.5967519,2.79117136 C63.9626922,3.11447959 64.1583612,3.53964971 64.1839377,4.06719789 L63.6373524,4.06719789 C63.6117759,3.67988186 63.4669022,3.36741366 63.2023735,3.12944916 C62.9376659,2.89182879 62.6042775,2.77293258 62.2016716,2.77293258 C61.6881748,2.77293258 61.2896826,2.95101881 61.0060163,3.30805158 C60.7223499,3.66474023 60.5806956,4.16458611 60.5806956,4.80793336 L60.5806956,4.96795287 C60.5806956,5.59908357 60.7223499,6.09153071 61.0060163,6.44529426 C61.2896826,6.79888576 61.6897845,6.97559547 62.2065007,6.97559547" id="Fill-69"></path>
                        <path d="M66.7793952,6.95274538 C67.1598228,6.95274538 67.4996501,6.86430449 67.7992346,6.68759477 C68.0986403,6.51088506 68.3164875,6.27446914 68.4525973,5.97869114 L68.4525973,4.89038642 L67.4354406,4.89038642 C66.868108,4.89640866 66.4247228,4.99620577 66.1045698,5.18977776 C65.7845956,5.38352181 65.6245191,5.64936067 65.6245191,5.98781053 C65.6245191,6.26534975 65.7314752,6.4953993 65.9452087,6.67847538 C66.159121,6.8613794 66.4372428,6.95274538 66.7793952,6.95274538 Z M68.5668865,7.34608365 C68.5100102,7.19053781 68.4733446,6.96048826 68.4576052,6.65559087 C68.2580014,6.90577191 68.0036676,7.09848357 67.6944248,7.23424206 C67.3857185,7.36965642 67.0582324,7.43744963 66.7130394,7.43744963 C66.2185013,7.43744963 65.8183995,7.30478829 65.5127338,7.03963769 C65.2068893,6.77465915 65.053967,6.43930644 65.053967,6.03375162 C65.053967,5.55180039 65.2623347,5.17102279 65.6790703,4.89038642 C66.0958058,4.60992212 66.6765527,4.46934584 67.421311,4.46934584 L68.4525973,4.46934584 L68.4525973,3.90704073 C68.4525973,3.55344924 68.33956,3.27522177 68.1129489,3.07235833 C67.8861589,2.86983902 67.5559899,2.76832126 67.1217264,2.76832126 C66.7255594,2.76832126 66.3973578,2.86605361 66.1378371,3.06100211 C65.8777798,3.25629473 65.7477512,3.49099001 65.7477512,3.76526001 L65.1775568,3.76078634 C65.1775568,3.36744807 65.3675023,3.02676137 65.7477512,2.73872626 C66.1281788,2.45051908 66.5958884,2.30632946 67.1503434,2.30632946 C67.7237572,2.30632946 68.176264,2.44449684 68.5075062,2.72031541 C68.8387483,2.99613398 69.0090197,3.38104112 69.0184991,3.87503683 L69.0184991,6.21665564 C69.0184991,6.69533765 69.070904,7.05340281 69.1753562,7.2913673 L69.1753562,7.34608365 L68.5668865,7.34608365 Z" id="Fill-70"></path>
                        <path d="M71.0529196,2.39776426 L71.0716996,3.20285166 C71.2621817,2.90397651 71.4997031,2.6799492 71.7849791,2.5304256 C72.0702551,2.38124612 72.3871888,2.30639828 72.7356011,2.30639828 C73.546894,2.30639828 74.0620006,2.62660936 74.280742,3.26685946 C74.4644276,2.95886492 74.7101764,2.72193281 75.0176306,2.555719 C75.3250848,2.38967725 75.6640178,2.30639828 76.0347872,2.30639828 C77.137795,2.30639828 77.7001196,2.88556567 77.7224767,4.04424456 L77.7224767,7.34615248 L77.1519246,7.34615248 L77.1519246,4.08553991 C77.1487052,3.64350753 77.0497976,3.31572563 76.854844,3.10236629 C76.6600694,2.88883488 76.3422415,2.78198314 75.901718,2.78198314 C75.4928522,2.78817745 75.1476592,2.9155048 74.8652449,3.16379313 C74.5833671,3.41225353 74.4263312,3.71508615 74.3950313,4.0717748 L74.3950313,7.34615248 L73.8243004,7.34615248 L73.8243004,4.04424456 C73.8212598,3.62027889 73.7173442,3.30436941 73.5130901,3.09531167 C73.3086572,2.88659805 72.9942276,2.78198314 72.5694435,2.78198314 C72.211194,2.78198314 71.9037398,2.88040375 71.6470808,3.07707288 C71.3904218,3.27374202 71.2002974,3.56556254 71.0767076,3.95270652 L71.0767076,7.34615248 L70.5063343,7.34615248 L70.5063343,2.39776426 L71.0529196,2.39776426 Z" id="Fill-71"></path>
                        <path d="M81.0501904,2.77296699 C80.6221869,2.77296699 80.26197,2.92386711 79.9688243,3.22566734 C79.6754997,3.52746758 79.4973587,3.93285033 79.4338646,4.44215973 L82.5191384,4.44215973 L82.5191384,4.3826256 C82.5030413,3.90704073 82.3622813,3.51989676 82.0961429,3.22102162 C81.8296468,2.92214647 81.4810556,2.77296699 81.0501904,2.77296699 M81.1548214,7.43744963 C80.7173385,7.43744963 80.3220658,7.33403917 79.9688243,7.12670207 C79.6154039,6.91936496 79.3401439,6.63046953 79.1439383,6.26001576 C78.9473751,5.889562 78.8491829,5.47419953 78.8491829,5.01358424 L78.8491829,4.81708716 C78.8491829,4.34133024 78.9448711,3.91323504 79.1369629,3.53194124 C79.3283393,3.15099157 79.5955509,2.85125611 79.9377033,2.63325103 C80.2800345,2.41559009 80.6509828,2.30632946 81.0501904,2.30632946 C81.6745782,2.30632946 82.1698318,2.51142973 82.5357721,2.92145821 C82.9018912,3.33165876 83.0848614,3.8918991 83.0848614,4.60217924 L83.0848614,4.90845314 L79.4149059,4.90845314 L79.4149059,5.01358424 C79.4149059,5.5746849 79.5819578,6.04218275 79.9164193,6.41538954 C80.250702,6.78911252 80.6715513,6.97562989 81.1786093,6.97562989 C81.4828441,6.97562989 81.7514865,6.92229005 81.9843576,6.81561038 C82.2172287,6.70910277 82.428637,6.53841529 82.6189403,6.30354795 L82.9755801,6.56388076 C82.5572348,7.14648943 81.950196,7.43744963 81.1548214,7.43744963" id="Fill-72"></path>
                        <path d="M84.7340252,2.39776426 L84.7533416,3.24397495 C84.9463278,2.93907757 85.1872474,2.70661912 85.4757429,2.54659961 C85.7642383,2.38640804 86.0827816,2.30639828 86.4313729,2.30639828 C86.9829662,2.30639828 87.393084,2.45592189 87.6627995,2.75462497 C87.9317996,3.05367218 88.0686248,3.5017268 88.0713077,4.09913297 L88.0713077,7.34615248 L87.5055847,7.34615248 L87.5055847,4.09448724 C87.502723,3.65262692 87.4054251,3.32329645 87.2133333,3.10666789 C87.021778,2.89021139 86.7148603,2.78198314 86.2936534,2.78198314 C85.9416639,2.78198314 85.6304537,2.88797456 85.3594862,3.09995739 C85.0883398,3.31176816 84.8881994,3.59756645 84.7583496,3.95735224 L84.7583496,7.34615248 L84.1924478,7.34615248 L84.1924478,2.39776426 L84.7340252,2.39776426 Z" id="Fill-73"></path>
                        <path d="M90.4245935,1.13113242 L90.4245935,2.39769544 L91.4891471,2.39769544 L91.4891471,2.84609419 L90.4245935,2.84609419 L90.4245935,6.14696972 C90.4245935,6.42175591 90.4759253,6.62633999 90.5787678,6.7605499 C90.681968,6.89493188 90.8534913,6.96203683 91.0945898,6.96203683 C91.1895626,6.96203683 91.3433791,6.94672314 91.5555029,6.91626781 L91.5792908,7.36053703 C91.4304822,7.4118121 91.2278378,7.43744963 90.971,7.43744963 C90.5810929,7.43744963 90.2976054,7.32870519 90.1201798,7.11052805 C89.9427542,6.89252298 89.8540414,6.57162364 89.8540414,6.14800211 L89.8540414,2.84609419 L88.9080697,2.84609419 L88.9080697,2.39769544 L89.8540414,2.39769544 L89.8540414,1.13113242 L90.4245935,1.13113242 Z" id="Fill-74"></path>
                        <path d="M92.8297299,4.94981732 C92.8297299,5.54137331 92.9892698,6.02676582 93.3076343,6.40633898 C93.6261776,6.7860842 94.0436286,6.97552665 94.5599872,6.97552665 C95.0733052,6.97552665 95.4891464,6.7860842 95.8076898,6.40633898 C96.1262331,6.02676582 96.2857731,5.52605962 96.2857731,4.9040483 L96.2857731,4.79874514 C96.2857731,4.42072056 96.2126208,4.07469988 96.0672105,3.76085517 C95.9210848,3.44666633 95.7166518,3.20353991 95.4539117,3.03147593 C95.190635,2.85906781 94.8896196,2.77303582 94.5506866,2.77303582 C94.0436286,2.77303582 93.6301125,2.96419891 93.3101383,3.34686922 C92.9898064,3.72953952 92.8297299,4.23007366 92.8297299,4.84915989 L92.8297299,4.94981732 Z M92.2595355,4.79874514 C92.2595355,4.32316028 92.3550449,3.89489302 92.5469578,3.51377128 C92.7385131,3.13247749 93.0094806,2.8361833 93.3600392,2.62420047 C93.7100613,2.41256176 94.1071226,2.30639828 94.5506866,2.30639828 C95.2351703,2.30639828 95.7898041,2.53730815 96.2145882,2.9991279 C96.6391934,3.4611197 96.851496,4.07315131 96.851496,4.83539477 L96.851496,4.94981732 C96.851496,5.42832727 96.7554501,5.85900343 96.5640737,6.24167374 C96.3721607,6.62434405 96.1020875,6.91926172 95.7534963,7.12659883 C95.4047262,7.33393593 95.0069494,7.43751845 94.5599872,7.43751845 C93.878723,7.43751845 93.3251622,7.20660858 92.8985896,6.74478884 C92.4723747,6.28279703 92.2595355,5.67076543 92.2595355,4.90852197 L92.2595355,4.79874514 Z" id="Fill-75"></path>
                        <path d="M101.106044,6.08857121 C101.106044,5.81705423 100.992649,5.59904916 100.766217,5.43438393 C100.539427,5.26971869 100.198168,5.14101483 99.7419057,5.04792821 C99.2851063,4.95518572 98.9313283,4.84833398 98.6793195,4.72788919 C98.4269531,4.60761647 98.2400481,4.46032969 98.1182468,4.28654506 C97.9960879,4.1129325 97.9350978,3.90267031 97.9350978,3.65558642 C97.9350978,3.2653453 98.1048326,2.94306945 98.4439444,2.68824268 C98.7830563,2.43376005 99.2173197,2.3064327 99.7461982,2.3064327 C100.319791,2.3064327 100.780346,2.4430515 101.127328,2.71560086 C101.474667,2.98866641 101.647979,3.3446668 101.647979,3.78360203 L101.077427,3.78360203 C101.077427,3.49401834 100.951512,3.25312876 100.699324,3.06093328 C100.447673,2.86890987 100.129666,2.77289817 99.7461982,2.77289817 C99.3725671,2.77289817 99.0719094,2.85290792 98.8454772,3.01292743 C98.6190449,3.17329107 98.5056499,3.38114436 98.5056499,3.63717558 C98.5056499,3.8840874 98.5995495,4.07559462 98.7887797,4.21118104 C98.9769366,4.34676746 99.3212353,4.47116972 99.820066,4.5840437 C100.319254,4.69674561 100.692885,4.81701834 100.941675,4.94503394 C101.191001,5.07322162 101.375223,5.22704682 101.495951,5.40719782 C101.616142,5.58700468 101.676238,5.80500975 101.676238,6.06104097 C101.676238,6.47898439 101.501138,6.81261647 101.151116,7.06245337 C100.801094,7.31246235 100.343936,7.43755287 99.7796444,7.43755287 C99.1804753,7.43755287 98.6952377,7.29800897 98.3228586,7.01909325 C97.9499429,6.74000546 97.7637533,6.38710222 97.7637533,5.9605556 L98.3344843,5.9605556 C98.3568413,6.28059462 98.4968859,6.52957121 98.7551546,6.70817362 C99.0137811,6.88660398 99.3550392,6.97556106 99.7796444,6.97556106 C100.175811,6.97556106 100.495786,6.89193796 100.740104,6.72417558 C100.983885,6.55658525 101.106044,6.34443036 101.106044,6.08857121" id="Fill-76"></path>
                    </g>
                    <g id="Group-2">
                        <path d="M107.811518,14.4771064 C107.811518,15.4940986 106.964844,16.3333333 105.926784,16.3333333 C104.888394,16.3333333 104.041885,15.4940986 104.041885,14.4771064 C104.041885,13.4443173 104.888394,12.6212121 105.926784,12.6212121 C106.964844,12.6212121 107.811518,13.4443173 107.811518,14.4771064" id="Fill-1" fill="#0070AD"></path>
                        <path d="M104.041885,20.4988146 C104.041885,20.3308586 104.185391,20.0454545 104.526404,20.0454545 L107.394499,20.0454545 C107.394499,20.0454545 107.811518,20.0454545 107.811518,20.4988146 L107.811518,37.8171345 C107.811518,37.951188 107.775642,38.6060606 107.236753,38.6060606 L104.041885,38.6060606 L104.041885,20.4988146" id="Fill-6" fill="#0070AD"></path>
                        <path d="M72.4579767,20.5292383 L72.4579767,10.4279575 C72.4579767,10.4279575 75.4263541,10.3939394 75.6898399,10.3939394 C75.935953,10.3939394 76.1465969,10.6299831 76.1465969,11.2702515 L76.1465969,35.0242292 C76.1465969,35.3274412 76.1465969,36.3047662 73.4413433,37.567947 C70.7540053,38.8314749 67.806077,39.0676921 64.8554342,37.567947 C62.99348,36.6079782 61.8655219,34.4063502 61.2511439,31.795117 C60.9346352,30.4810827 60.9760763,27.5473722 61.7956692,25.0494747 C62.5032444,22.8931463 63.3403909,21.4478995 65.780168,20.1874957 C66.9302039,19.5935681 70.6836097,19.198195 72.4579767,20.5292383 M65.979592,24.120747 C63.5202706,27.1698759 63.8364174,29.2120008 64.257886,31.1157972 C64.6970894,33.01942 66.1151352,35.2963737 69.6155512,35.5138463 C72.7267105,35.7068467 72.492903,33.8124227 72.492903,33.8124227 L72.4579767,23.6825041 C71.1582823,22.6550199 68.2326127,21.4078068 65.979592,24.120747" id="Fill-11" fill="#66BA90"></path>
                        <path d="M89.3785695,26.4474757 C89.3785695,26.4474757 89.5325016,24.4643289 88.899317,23.2344295 C88.0949205,21.6806038 84.4716094,21.2875286 83.427763,22.9782444 C82.4006674,24.6691362 81.8187935,26.218739 80.0389647,25.1253778 C78.7553157,24.3399313 79.8504729,22.1368454 81.2027125,20.8219615 C81.9727256,20.0875409 84.517983,18.8747088 88.505935,19.4556999 C92.5106379,20.0363391 92.7329843,23.315367 92.7329843,23.8622236 C92.7329843,24.6225091 92.6991298,33.4823595 92.6991298,34.592612 C92.6991298,35.7199319 92.3224987,38.6060606 85.253789,38.6060606 C79.1950713,38.6060606 77.8994321,34.0464593 78.5668238,32.0305855 C78.9778384,30.7669035 79.7651314,29.2999977 82.7944021,28.2923248 C85.8234964,27.2674086 89.3785695,26.4474757 89.3785695,26.4474757 M84.0988575,30.5730052 C82.6350039,31.2680127 81.1505202,32.8547413 82.4821297,34.8088562 C84.0419044,37.0978063 89.3776879,35.4626911 89.3776879,33.6183698 C89.3776879,32.6791419 89.3445387,29.100469 89.3445387,29.100469 C87.0166905,29.5787045 84.9367559,30.1311915 84.0988575,30.5730052" id="Fill-16" fill="#66BA90"></path>
                        <path d="M100.256378,37.2915286 C100.256378,37.8915483 100.256378,38.6030557 99.5217254,38.6030557 C98.8200119,38.6030557 97.7080402,38.5905112 97.4545203,38.6030557 C96.9323063,38.6288516 96.5026178,38.5014623 96.5026178,37.7130972 L96.5026178,5.35461447 C96.5026178,4.60052611 96.6998822,3.40101677 97.4904202,2.59533661 C98.2807732,1.77251808 99.2593231,0.568768315 99.5467073,0.294554366 C99.8342766,0.0203404177 100.220293,-0.22719421 100.256378,0.355510431 C100.292093,0.938215072 100.256378,3.68653851 100.256378,3.68653851 L100.256378,13.9407621 L100.256378,36.3236523" id="Fill-21" fill="#0070AD"></path>
                        <path d="M110.844111,23.7064933 C110.844111,23.1414947 111.155263,19.3030303 118.103858,19.3030303 C125.052278,19.3030303 125.151832,23.0031098 125.151832,23.8933571 L125.151832,37.9730153 C125.151832,38.6060606 124.822388,38.6060605 124.486083,38.6060605 L122.420061,38.6060605 C122.198262,38.6060605 121.839443,38.6087048 121.839443,37.9074367 L121.839443,25.3947901 C121.839443,24.6762459 121.728455,22.3963313 117.989529,22.3963313 C114.25025,22.3963313 114.173386,24.7183784 114.173386,25.2661008 L114.173386,37.7875618 C114.173386,37.9927594 114.122553,38.6060605 113.695664,38.6060605 L111.401511,38.6060605 C110.940323,38.6060605 110.827225,38.2667088 110.827225,37.7702857 L110.844111,23.7064933" id="Fill-26" fill="#0070AD"></path>
                        <path d="M129.421267,10.3939394 L132.204819,10.3939394 C132.347278,10.3939394 132.668408,10.5630338 132.668408,10.9008743 L132.668408,28.1389255 L140.697569,19.9072846 L142.830775,19.9072846 C142.830775,19.9072846 143.578913,19.8883028 143.770084,20.1883539 C144.067133,20.6550615 143.637735,21.0860693 143.637735,21.0860693 L136.540162,28.3926542 C136.540162,28.3926542 143.731114,37.6054258 143.891587,37.7914122 C144.05206,37.9770503 144.106103,38.5856857 143.534797,38.5856857 C142.981873,38.5856857 140.037663,38.6025777 140.037663,38.6025777 L132.668408,29.1869277 L132.668408,37.9262001 C132.668408,38.1795805 132.632931,38.6060606 131.972658,38.6060606 L129.403069,38.6060606 C129.189105,38.6060606 128.921466,38.3824589 128.921466,37.8925902 C128.921466,37.402199 128.939112,11.2051049 128.939112,11.2051049 C128.939112,10.9515504 129.028632,10.3939394 129.421267,10.3939394 Z" id="Fill-31" fill="#0070AD"></path>
                        <path d="M24.8853502,4.26143698 C24.8853502,4.26143698 26.3522398,3.8735222 27.4591965,3.76246239 C28.5522215,3.65175572 28.6217039,4.44171053 28.6217039,4.80172794 C28.6217039,5.16209847 28.6492147,7.76679526 28.6492147,8.29313753 C28.6492147,8.81983293 28.6492147,9.31845438 27.7912659,9.5817138 C27.1412352,9.79182695 24.821511,10.1295971 21.0740473,11.7156865 C21.5755902,12.5496062 22.0051818,13.4354362 22.3390147,14.3758249 C25.7708098,23.9914148 18.9625939,32.013323 15.1430024,35.6991314 C14.0212322,36.7816555 12.8874701,37.7824297 11.7216121,38.7221123 C12.5033771,39.8524857 13.3967725,41.0072252 14.409734,42.1833291 L14.5479934,42.3079845 C15.2260639,41.6566337 16.1531423,41.2547702 17.177214,41.2547702 C19.2944869,41.2547702 21.0243162,42.9868795 21.0243162,45.1204991 C21.0243162,47.2684205 19.2944869,49 17.177214,49 C15.0601173,49 13.3302881,47.2684205 13.3302881,45.1204991 C13.3302881,44.3584416 13.5516089,43.6520024 13.9392289,43.0423211 C13.9392289,43.0423211 12.2928137,41.8822846 10.3171508,39.8134647 C7.91789223,41.6096672 5.35586145,43.1908128 2.46705183,44.7188122 C1.73360703,45.1069035 1.20755129,44.2754558 1.00016223,43.4994496 C0.86155016,42.9591587 0.280649184,40.9779153 0.0312885337,40.0357608 C-0.189855918,39.2320339 0.806528574,38.7056916 1.59517131,38.2761074 C1.95245892,38.0834742 4.06532309,36.8224422 6.60566267,35.023238 C4.43812961,31.4633209 2.90528465,26.9022765 4.01700285,21.7191912 C5.36221009,15.4767119 10.1453847,11.2387826 14.810404,8.49777714 C12.3697029,5.68738135 9.06346987,3.02953829 5.49747149,1.07477974 C5.207021,0.908454877 5.12395957,0.659144149 5.56695388,0.769850825 C5.56695388,0.769850825 12.1189314,2.72125463 17.2186565,7.19948976 C20.9274994,5.36426617 24.1392081,4.47825963 24.8853502,4.26143698 M17.9714999,13.171647 C17.6715265,13.3259654 17.3652044,13.4869933 17.0525336,13.655437 C13.4687238,15.5948343 8.79118356,18.9894859 7.65636334,23.9357966 C7.02678942,26.7145872 7.32288315,29.9084836 8.77830992,33.4223171 C10.7545019,31.9034991 12.7638479,30.1713899 14.2711219,28.438751 C17.3144152,24.9402788 21.7378333,20.7549661 17.9714999,13.171647" id="Fill-36" fill="#0070AD"></path>
                        <path d="M58.8062827,14.4771064 C58.8062827,15.4940986 57.9596086,16.3333333 56.9213837,16.3333333 C55.8831588,16.3333333 55.0366492,15.4940986 55.0366492,14.4771064 C55.0366492,13.4443173 55.8831588,12.6212121 56.9213837,12.6212121 C57.9596086,12.6212121 58.8062827,13.4443173 58.8062827,14.4771064" id="Fill-41" fill="#66BA90"></path>
                        <path d="M55.0366492,20.4988146 C55.0366492,20.3308586 55.1623961,20.0454545 55.5216994,20.0454545 L58.3036649,20.0454545 C58.5547889,20.0454545 58.8062827,20.0454545 58.8062827,20.496566 L58.8062827,37.8171345 C58.8062827,37.951188 58.7524704,38.6060606 58.2137929,38.6060606 L55.0366492,38.6060606 L55.0366492,20.4081772" id="Fill-46" fill="#66BA90"></path>
                        <path d="M32.5243027,11.4926244 C32.2991122,10.9008774 32.4202725,10.3939394 33.0266098,10.3939394 L36.3002599,10.3939394 L44.2334993,31.914339 C44.2334993,31.914339 48.0613824,21.3494436 48.2692643,20.7409786 C48.4769678,20.1492316 48.8754231,19.9298081 49.2567482,19.9298081 C49.6546682,19.9298081 51.0927117,19.9129159 51.404267,19.9129159 C51.7334878,19.9129159 52.252925,20.1662979 51.9063956,21.0281448 C51.5775317,21.9074063 45.0305883,38.6060606 45.0305883,38.6060606 L43.1771378,38.6060606 L32.5243027,11.4926244" id="Fill-51" fill="#66BA90"></path>
                    </g>
                </g>
            </g>
        </g>
    </g>
</svg>